<svg width="50" height="50" viewBox="0 0 50 50" fill="none" xmlns="http://www.w3.org/2000/svg">
<g clip-path="url(#clip0_97_1782)">
<path d="M41.6663 16.6667H35.8122C34.8747 15.0417 33.583 13.6458 32.0205 12.5833L35.4163 9.1875L32.4788 6.25L27.958 10.7708C26.9997 10.5417 26.0205 10.4167 24.9997 10.4167C23.9788 10.4167 22.9997 10.5417 22.0622 10.7708L17.5205 6.25L14.583 9.1875L17.958 12.5833C16.4163 13.6458 15.1247 15.0417 14.1872 16.6667H8.33301V20.8333H12.6872C12.583 21.5208 12.4997 22.2083 12.4997 22.9167V25H8.33301V29.1667H12.4997V31.25C12.4997 31.9583 12.583 32.6458 12.6872 33.3333H8.33301V37.5H14.1872C16.3538 41.2292 20.3747 43.75 24.9997 43.75C29.6247 43.75 33.6455 41.2292 35.8122 37.5H41.6663V33.3333H37.3122C37.4163 32.6458 37.4997 31.9583 37.4997 31.25V29.1667H41.6663V25H37.4997V22.9167C37.4997 22.2083 37.4163 21.5208 37.3122 20.8333H41.6663V16.6667ZM29.1663 33.3333H20.833V29.1667H29.1663V33.3333ZM29.1663 25H20.833V20.8333H29.1663V25Z" fill="#6F42C1"/>
</g>
<defs>
<clipPath id="clip0_97_1782">
<rect width="50" height="50" fill="white"/>
</clipPath>
</defs>
</svg>
