<svg width="20" height="20" viewBox="0 0 20 20" fill="none" xmlns="http://www.w3.org/2000/svg">
<g clip-path="url(#clip0_97_2066)">
<path d="M9.99154 1.66663C5.39154 1.66663 1.6582 5.39996 1.6582 9.99996C1.6582 14.6 5.39154 18.3333 9.99154 18.3333C14.5915 18.3333 18.3249 14.6 18.3249 9.99996C18.3249 5.39996 14.5915 1.66663 9.99154 1.66663ZM12.9999 6.94996C13.8915 6.94996 14.6082 7.66663 14.6082 8.55829C14.6082 9.44996 13.8915 10.1666 12.9999 10.1666C12.1082 10.1666 11.3915 9.44996 11.3915 8.55829C11.3832 7.66663 12.1082 6.94996 12.9999 6.94996ZM7.99987 5.63329C9.0832 5.63329 9.96654 6.51663 9.96654 7.59996C9.96654 8.68329 9.0832 9.56663 7.99987 9.56663C6.91654 9.56663 6.0332 8.68329 6.0332 7.59996C6.0332 6.50829 6.9082 5.63329 7.99987 5.63329ZM7.99987 13.2416V16.3666C5.99987 15.7416 4.41654 14.2 3.71654 12.2333C4.59154 11.3 6.77487 10.825 7.99987 10.825C8.44154 10.825 8.99987 10.8916 9.5832 11.0083C8.21654 11.7333 7.99987 12.6916 7.99987 13.2416ZM9.99154 16.6666C9.76653 16.6666 9.54987 16.6583 9.3332 16.6333V13.2416C9.3332 12.0583 11.7832 11.4666 12.9999 11.4666C13.8915 11.4666 15.4332 11.7916 16.1999 12.425C15.2249 14.9 12.8165 16.6666 9.99154 16.6666Z" fill="#DADADA"/>
</g>
<defs>
<clipPath id="clip0_97_2066">
<rect width="20" height="20" fill="white"/>
</clipPath>
</defs>
</svg>
