<svg width="25" height="25" viewBox="0 0 25 25" fill="none" xmlns="http://www.w3.org/2000/svg">
<path d="M0 12.5C0 5.59644 5.59644 0 12.5 0C19.4036 0 25 5.59644 25 12.5C25 19.4036 19.4036 25 12.5 25C5.59644 25 0 19.4036 0 12.5Z" fill="white"/>
<mask id="mask0_0_11" style="mask-type:luminance" maskUnits="userSpaceOnUse" x="0" y="0" width="25" height="25">
<path fill-rule="evenodd" clip-rule="evenodd" d="M0 12.5C0 5.59644 5.59644 0 12.5 0C19.4036 0 25 5.59644 25 12.5C25 19.4036 19.4036 25 12.5 25C5.59644 25 0 19.4036 0 12.5Z" fill="white"/>
</mask>
<g mask="url(#mask0_0_11)">
<path d="M12.499 5.83337C14.3094 5.83338 14.5361 5.84106 15.2471 5.87341C15.9566 5.90592 16.4413 6.01818 16.8662 6.18298C17.3051 6.35312 17.676 6.58168 18.0469 6.95251C18.4176 7.32301 18.6456 7.69477 18.8164 8.13318C18.9803 8.55705 19.0926 9.04165 19.126 9.75134C19.1579 10.4623 19.166 10.6899 19.166 12.5004C19.166 14.3107 19.1579 14.5374 19.126 15.2484C19.0926 15.9579 18.9803 16.4425 18.8164 16.8666C18.6456 17.3049 18.4177 17.6767 18.0469 18.0472C17.6766 18.418 17.3053 18.6465 16.8672 18.8168C16.4431 18.9816 15.9577 19.0938 15.248 19.1263C14.5369 19.1587 14.3097 19.1664 12.499 19.1664C10.6891 19.1664 10.4619 19.1587 9.75098 19.1263C9.04154 19.0938 8.55692 18.9816 8.13281 18.8168C7.69463 18.6465 7.32255 18.4181 6.95215 18.0472C6.58145 17.6767 6.35303 17.305 6.18262 16.8666C6.0179 16.4427 5.90569 15.9581 5.87305 15.2484C5.84083 14.5373 5.83301 14.3107 5.83301 12.5004C5.83301 10.69 5.84125 10.4622 5.87305 9.75134C5.90499 9.04203 6.01739 8.55715 6.18262 8.13318C6.35341 7.69495 6.58148 7.32298 6.95215 6.95251C7.32271 6.58182 7.69531 6.35326 8.13379 6.18298C8.55747 6.01827 9.04177 5.90592 9.75098 5.87341C10.4619 5.84106 10.6896 5.83338 12.499 5.83337ZM11.9023 7.03259C10.66 7.03398 10.4215 7.04291 9.80664 7.07068C9.15664 7.10054 8.80336 7.2085 8.56836 7.30017C8.25727 7.42127 8.03508 7.56589 7.80176 7.79919C7.56845 8.0325 7.42356 8.25474 7.30273 8.5658C7.21148 8.8008 7.10296 9.15407 7.07324 9.80408C7.04131 10.5066 7.03516 10.7168 7.03516 12.4965C7.03516 14.2765 7.04131 14.4882 7.07324 15.1908C7.10281 15.8404 7.21152 16.1934 7.30273 16.4281C7.42384 16.7393 7.56846 16.9614 7.80176 17.1947C8.03509 17.428 8.25725 17.5729 8.56836 17.6937C8.8035 17.785 9.15665 17.8932 9.80664 17.9232C10.5092 17.9552 10.7203 17.9623 12.5 17.9623C14.28 17.9623 14.4916 17.9552 15.1943 17.9232C15.8439 17.8935 16.1969 17.7854 16.4316 17.6937C16.7429 17.5729 16.9649 17.428 17.1982 17.1947C17.4315 16.9616 17.5765 16.7401 17.6973 16.4291C17.7885 16.1944 17.897 15.8416 17.9268 15.1918C17.9587 14.489 17.9658 14.2776 17.9658 12.4984C17.9658 10.7193 17.9587 10.5078 17.9268 9.80505C17.8971 9.15529 17.7885 8.80243 17.6973 8.56775C17.5762 8.25667 17.4316 8.03446 17.1982 7.80115C16.965 7.56781 16.7428 7.42394 16.4316 7.3031C16.1967 7.21187 15.8441 7.10235 15.1943 7.07263C14.4914 7.04069 14.28 7.03455 12.5 7.03455C12.2777 7.03455 12.0797 7.03427 11.9023 7.03455V7.03259ZM12.5 9.07654C14.3907 9.07654 15.9238 10.6097 15.9238 12.5004C15.9236 14.3909 14.3906 15.9232 12.5 15.9232C10.6095 15.9231 9.07637 14.3908 9.07617 12.5004C9.07617 10.6687 10.5153 9.17209 12.3242 9.08044L12.5 9.07654ZM12.5 10.2777C11.2728 10.2779 10.2783 11.2731 10.2783 12.5004C10.2785 13.7274 11.2728 14.7219 12.5 14.722C13.7271 14.722 14.7225 13.7275 14.7227 12.5004C14.7227 11.273 13.7272 10.2777 12.5 10.2777ZM16.0586 8.14099C16.5003 8.14099 16.8594 8.5001 16.8594 8.94177C16.8591 9.38324 16.5001 9.74158 16.0586 9.74158C15.6172 9.74139 15.259 9.38313 15.2588 8.94177C15.2588 8.50008 15.6171 8.14216 16.0586 8.14197V8.14099Z" fill="black"/>
</g>
</svg>
