<svg width="15" height="15" viewBox="0 0 15 15" fill="none" xmlns="http://www.w3.org/2000/svg">
<path d="M11.4377 3.56869C11.3209 3.45166 11.1624 3.38589 10.9971 3.38589C10.8317 3.38589 10.6732 3.45166 10.5564 3.56869L7.5002 6.61869L4.44395 3.56244C4.32718 3.44541 4.16864 3.37964 4.00332 3.37964C3.838 3.37964 3.67946 3.44541 3.5627 3.56244C3.31895 3.80619 3.31895 4.19994 3.5627 4.44369L6.61895 7.49994L3.5627 10.5562C3.31895 10.7999 3.31895 11.1937 3.5627 11.4374C3.80645 11.6812 4.2002 11.6812 4.44395 11.4374L7.5002 8.38119L10.5564 11.4374C10.8002 11.6812 11.1939 11.6812 11.4377 11.4374C11.6814 11.1937 11.6814 10.7999 11.4377 10.5562L8.38144 7.49994L11.4377 4.44369C11.6752 4.20619 11.6752 3.80619 11.4377 3.56869Z" fill="#EF5DA8"/>
</svg>
