<svg width="71" height="80" viewBox="0 0 71 80" fill="none" xmlns="http://www.w3.org/2000/svg">
<mask id="mask0_97_1908" style="mask-type:alpha" maskUnits="userSpaceOnUse" x="0" y="0" width="71" height="80">
<path d="M29.3912 64.425V47.7584H41.1501V64.425C41.1501 66.2584 42.473 67.7584 44.0898 67.7584H52.909C54.5259 67.7584 55.8487 66.2584 55.8487 64.425V41.0917H60.8463C62.1986 41.0917 62.8453 39.1917 61.8164 38.1917L37.2403 13.0917C36.1232 11.9584 34.4181 11.9584 33.301 13.0917L8.72488 38.1917C7.72538 39.1917 8.34272 41.0917 9.695 41.0917H14.6925V64.425C14.6925 66.2584 16.0154 67.7584 17.6323 67.7584H26.4515C28.0683 67.7584 29.3912 66.2584 29.3912 64.425Z" fill="#6D7D8B"/>
</mask>
<g mask="url(#mask0_97_1908)">
<rect x="-2.82227" y="-14.3999" width="83.2531" height="102.4" fill="#6F42C1"/>
</g>
</svg>
