<svg width="25" height="25" viewBox="0 0 25 25" fill="none" xmlns="http://www.w3.org/2000/svg">
<path d="M0 12.5C0 5.59644 5.59644 0 12.5 0C19.4036 0 25 5.59644 25 12.5C25 19.4036 19.4036 25 12.5 25C5.59644 25 0 19.4036 0 12.5Z" fill="#FF0000"/>
<path d="M18.8877 9.41309C18.7344 8.82403 18.2826 8.36016 17.7088 8.20273C16.6691 7.91663 12.4997 7.91663 12.4997 7.91663C12.4997 7.91663 8.3302 7.91663 7.29043 8.20273C6.71672 8.36016 6.2649 8.82403 6.11157 9.41309C5.83301 10.4807 5.83301 12.7083 5.83301 12.7083C5.83301 12.7083 5.83301 14.9358 6.11157 16.0035C6.2649 16.5926 6.71672 17.0564 7.29043 17.2139C8.3302 17.5 12.4997 17.5 12.4997 17.5C12.4997 17.5 16.6691 17.5 17.7088 17.2139C18.2826 17.0564 18.7344 16.5926 18.8877 16.0035C19.1663 14.9358 19.1663 12.7083 19.1663 12.7083C19.1663 12.7083 19.1663 10.4807 18.8877 9.41309Z" fill="white"/>
<path d="M11.25 15V10.8334L14.5833 12.9168L11.25 15Z" fill="#FF0000"/>
</svg>
